<?xml version="1.0" standalone="no"?>
<!DOCTYPE svg PUBLIC "-//W3C//DTD SVG 20010904//EN"
 "http://www.w3.org/TR/2001/REC-SVG-20010904/DTD/svg10.dtd">
<svg version="1.0" xmlns="http://www.w3.org/2000/svg"
 width="596.000000pt" height="596.000000pt" viewBox="0 0 596.000000 596.000000"
 preserveAspectRatio="xMidYMid meet">
<metadata>
Created by potrace 1.14, written by Peter Selinger 2001-2017
</metadata>
<g transform="translate(0.000000,596.000000) scale(0.100000,-0.100000)"
fill="#000000" stroke="none">
<path d="M3535 5460 c-59 -13 -118 -35 -162 -63 -83 -53 -180 -170 -225 -275
-18 -41 -94 -119 -173 -176 -9 -7 -30 6 -71 41 -117 100 -219 156 -378 208
-170 55 -273 69 -511 70 -266 0 -311 -8 -1010 -175 -577 -138 -670 -157 -839
-170 -66 -6 -124 -14 -129 -19 -23 -23 -28 -549 -25 -2424 3 -1745 5 -1979 18
-1987 44 -28 418 6 1100 101 669 93 959 102 1250 39 109 -23 168 -49 219 -95
22 -21 58 -41 78 -46 21 -5 167 -9 325 -9 l288 0 117 59 c65 32 159 74 208 92
l90 34 225 0 c236 -1 278 -5 620 -65 91 -16 228 -38 305 -49 264 -39 866 -78
1008 -66 l84 7 6 255 c9 333 9 3770 0 3976 -3 87 -11 164 -17 172 -8 11 -51
17 -176 24 -217 12 -334 39 -685 156 -315 105 -430 137 -560 159 -105 18 -317
36 -420 36 -71 0 -73 1 -85 30 -30 73 -121 136 -228 159 -60 12 -187 13 -247
1z m289 -146 c22 -11 41 -25 43 -31 2 -6 -35 -13 -99 -17 -130 -9 -306 -39
-380 -65 -32 -11 -58 -16 -58 -11 0 4 25 31 56 59 78 71 144 91 289 88 89 -2
118 -6 149 -23z m-1579 -139 c196 -27 284 -52 400 -109 128 -64 203 -120 276
-208 l52 -63 -6 -584 c-4 -321 -7 -1202 -7 -1958 0 -755 -3 -1373 -7 -1373 -5
1 -26 25 -48 56 -75 102 -226 199 -375 241 -95 26 -582 26 -750 0 -189 -30
-458 -75 -760 -127 -326 -57 -475 -76 -645 -85 -66 -3 -130 -8 -142 -11 l-23
-4 0 1950 c0 1386 3 1950 11 1950 6 0 72 9 147 21 161 24 375 69 822 173 566
130 644 144 830 145 69 0 170 -6 225 -14z m1679 -35 c11 -80 -21 -286 -76
-496 l-22 -84 -132 6 c-123 6 -135 5 -177 -15 -57 -28 -109 -85 -130 -142 -11
-30 -56 -452 -143 -1351 -125 -1294 -126 -1307 -109 -1363 20 -69 80 -134 146
-158 26 -10 149 -27 299 -41 309 -30 337 -27 423 53 69 63 59 -8 198 1421 101
1043 126 1325 118 1359 -28 126 -118 193 -276 206 -63 5 -83 11 -83 22 0 8 11
58 24 111 42 164 66 320 66 425 l0 100 159 -6 c272 -12 311 -20 796 -173 317
-100 465 -138 633 -161 l122 -17 0 -1938 0 -1938 -39 0 c-62 0 -299 43 -709
130 -604 127 -707 140 -1086 140 -327 0 -430 -19 -598 -107 -79 -41 -195 -144
-256 -227 l-37 -51 -6 460 c-3 253 -10 1143 -14 1977 l-8 1518 49 71 c70 102
153 175 249 220 132 61 312 96 501 98 l111 1 7 -50z m-3789 -337 c4 -16 10
-827 15 -1803 7 -1610 12 -1983 26 -2075 l4 -31 168 13 c204 15 325 33 877
128 495 85 608 101 835 115 370 23 594 -33 750 -189 65 -66 85 -97 155 -256
25 -57 27 -59 41 -40 9 11 38 65 66 120 42 81 67 116 132 181 192 191 455 250
961 214 180 -13 363 -43 760 -125 472 -98 711 -143 797 -151 l76 -7 6 74 c3
41 10 893 15 1894 5 1001 12 1853 17 1893 7 73 15 87 30 55 5 -10 10 -972 12
-2139 l3 -2120 -83 3 c-625 24 -783 39 -1258 118 -344 57 -467 69 -670 62
-203 -6 -272 -23 -453 -109 l-132 -63 -295 0 c-326 0 -299 -5 -403 70 -106 76
-207 90 -657 90 -401 0 -425 -2 -900 -70 -532 -77 -927 -114 -937 -89 -7 20 4
4197 12 4232 9 39 20 41 30 5z m3770 -378 c50 -49 20 -125 -50 -125 -44 0 -75
29 -75 70 0 38 39 80 75 80 14 0 37 -11 50 -25z m-34 -633 c3 -4 -2 -81 -11
-171 -10 -109 -12 -165 -5 -167 5 -2 77 -10 158 -18 82 -8 150 -16 152 -18 5
-5 -12 -149 -19 -155 -3 -3 -75 0 -161 8 l-154 14 -5 -25 c-3 -14 -24 -223
-47 -465 -23 -242 -44 -443 -48 -446 -6 -6 -138 5 -146 12 -2 2 16 207 41 454
24 248 44 458 44 467 0 20 -13 23 -193 39 l-128 12 6 76 c4 42 10 79 14 83 3
4 75 0 159 -8 85 -9 155 -14 157 -12 4 4 35 295 35 326 0 12 12 13 73 8 39 -4
75 -11 78 -14z"/>
</g>
</svg>
